<?xml version="1.0" encoding="utf-8"?>
<!-- Generator: Adobe Illustrator 18.1.0, SVG Export Plug-In . SVG Version: 6.00 Build 0)  -->
<svg version="1.1" id="Layer_1" xmlns="http://www.w3.org/2000/svg" xmlns:xlink="http://www.w3.org/1999/xlink" x="0px" y="0px"
	 viewBox="0 0 500 380" enable-background="new 0 0 500 380" xml:space="preserve">
<path fill="#3F1224" d="M233.8,213.6c68.5,44.6,126.7,82.5,129.3,84.3c2.7,1.7,5.8,6,7,9.5c1.2,3.5,3.8,11.5,5.9,17.8
	c2.1,6.3,4.2,13,4.8,14.8c0.6,1.8,2.3,4.1,3.8,5.1c1.5,1,9.9,6.4,18.6,12.1c8.7,5.7,16.9,11,18.1,11.8c1.2,0.8,3.8,1.3,5.7,1
	c1.9-0.3,9-1.4,15.9-2.4c6.9-1,13.9-2.1,15.6-2.3c0.6-0.1,1-0.3,1.1-0.6c0.3-0.5-0.2-1.3-1.4-2.1c-1.9-1.2-9.6-6.3-17.2-11.2
	c-7.6-5-14.8-9.6-15.9-10.3c-1.1-0.7-2.2-2.1-2.5-3.1c-0.2-1-1.4-5.7-2.7-10.5c-1.2-4.8-2.4-9.4-2.7-10.3c-0.2-0.8,0-2.1,0.5-3
	c0.1-0.1,0.1-0.2,0.2-0.3c0.6-0.9,3.2-4.7,5.7-8.4c2.5-3.7,5-7.4,5.6-8.2c0.6-0.8,2-1.6,3.2-1.8c1.2-0.2,5.7-0.9,10-1.5
	c4.3-0.7,9-1.3,10.4-1.6c1.4-0.2,3.8,0.4,5.4,1.5c1.5,1,8.6,5.6,15.6,10.2c7,4.6,14.4,9.4,16.4,10.7c1.3,0.8,2.2,0.9,2.6,0.2
	c0.2-0.4,0.2-0.9,0-1.7c-0.5-2.1-2.4-9.3-4.1-15.9c-1.7-6.6-3.4-13.1-3.7-14.4c-0.3-1.3-1.9-3.2-3.6-4.3c-1.6-1.1-10-6.5-18.5-12.1
	c-8.6-5.6-16.6-10.8-17.9-11.7c-1.3-0.8-9.6-0.7-18.5,0.2c-8.9,0.9-19.2,2-22.9,2.4c-3.7,0.4-8.9-0.7-11.6-2.5
	c-2.7-1.8-61.4-40-130.4-85c-69-45-128.2-83.6-131.6-85.7c-3.3-2.2-7-6.3-8.2-9.1c-1.2-2.9-4.2-9.9-6.7-15.8
	c-2.5-5.8-5.5-11.2-6.7-12c-1.2-0.8-8.1-5.3-15.2-9.9c-7.1-4.6-13.8-9-14.8-9.6c-1-0.7-3.1-1-4.6-0.8c-1.5,0.2-7.3,1.1-12.9,2
	C55.2,30,49.5,30.8,48.2,31c-0.5,0.1-0.8,0.2-0.9,0.5c-0.2,0.4,0.1,1.1,1.1,1.7c1.5,1,7.8,5.1,14,9.1c6.2,4,12.1,7.8,13,8.4
	c0.9,0.6,1.8,1.7,2,2.5c0.2,0.8,1.2,4.7,2.2,8.6c1,3.9,2,7.7,2.2,8.4c0.2,0.6,0,1.7-0.5,2.4c0,0.1-0.1,0.2-0.1,0.2
	c-0.5,0.8-2.6,3.8-4.6,6.9c-2,3-4.1,6-4.5,6.7c-0.4,0.7-1.6,1.3-2.6,1.5c-1,0.1-4.6,0.7-8.2,1.2c-3.5,0.5-7.3,1.1-8.5,1.3
	c-1.1,0.2-3.1-0.4-4.4-1.2c-1.3-0.8-7-4.5-12.7-8.3c-5.7-3.7-11.7-7.7-13.4-8.7c-1-0.7-1.8-0.7-2.1-0.1c-0.2,0.3-0.2,0.8,0,1.4
	c0.4,1.7,1.9,7.6,3.3,13c1.4,5.4,2.8,10.7,3,11.7c0.3,1.1,1.6,2.6,2.9,3.5c1.3,0.9,8.1,5.3,15.1,9.8c7,4.6,13.6,8.9,14.6,9.5
	c1.1,0.7,7.1,1.4,13.5,1.5c6.3,0.2,14,0.4,17,0.4c3,0.1,8.7,2.2,12.6,4.8C106.1,130.4,165.3,169,233.8,213.6z M100.9,118.1l4.2-6.1
	l268.6,175l-4.1,6.2L100.9,118.1z"/>
</svg>
