<?xml version="1.0" encoding="utf-8"?>
<!-- Generator: Adobe Illustrator 18.1.0, SVG Export Plug-In . SVG Version: 6.00 Build 0)  -->
<svg version="1.1" id="Layer_1" xmlns="http://www.w3.org/2000/svg" xmlns:xlink="http://www.w3.org/1999/xlink" x="0px" y="0px"
	 viewBox="0 0 500 380" enable-background="new 0 0 500 380" xml:space="preserve">
<g>
	<path fill="#FA550A" d="M353.7,154.9c-8.9-26.4-20.7-45-48.4-68.6c-20.5-17.5-47.9-27.1-77-27.1c-5.4,0-10.8,0.3-16.1,1
		c-33.3,4.1-62.7,20.6-80.5,45.4c-15.4,21.4-23.2,46.1-22.6,71.7c0.6,25.2,9.2,49,25.1,68.7c4.9,6.1,10.5,11.7,16.6,16.8
		c0.2,0.2,0.5,0.4,0.7,0.6c18.7,15.3,40.8,23.1,65.7,23.1c16.6,0,34.1-3.5,53.4-10.4c-0.4,6.6,0.2,13.1,0,19.5v56.7
		c0,3,2.5,5.5,5.6,5.5H359c3.1,0,5.5-2.5,5.5-5.6v-81C364.3,192.3,360.5,175.1,353.7,154.9z M257.9,225.1
		c-20.7,16.6-51,13.4-67.6-7.3c-16.6-20.7-13.4-51,7.3-67.6c20.7-16.6,51-13.4,67.6,7.3C281.9,178.2,278.6,208.4,257.9,225.1z"/>
</g>
</svg>
