<?xml version="1.0" encoding="utf-8"?>
<!-- Generator: Adobe Illustrator 18.1.0, SVG Export Plug-In . SVG Version: 6.00 Build 0)  -->
<svg version="1.1" id="Layer_1" xmlns="http://www.w3.org/2000/svg" xmlns:xlink="http://www.w3.org/1999/xlink" x="0px" y="0px"
	 viewBox="0 0 500 380" enable-background="new 0 0 500 380" xml:space="preserve">
<path fill="#1E1914" d="M25.6,234.9l-15.7,0.8c-0.7,0-1.3,0.6-1.4,1.3l-0.7,6.8c-0.1,0.7,0.4,1.3,1.1,1.5l15.2,3.9
	c0.6,0.2,1.2,0.9,1.3,1.5l0.3,5.2c0.1,0.7-0.4,1.4-1.1,1.7l-14.6,5.6c-0.6,0.2-1,1-0.9,1.7l1.4,6.7c0.2,0.6,0.9,1.2,1.5,1.1
	l15.7-0.9c0.7,0,1.4,0.4,1.7,1.1l1.8,4.8c0.3,0.6,0,1.5-0.5,1.9l-12.2,9.9c-0.5,0.4-0.7,1.2-0.4,1.8l3.4,5.9
	c0.4,0.6,1.1,0.8,1.8,0.6l14.6-5.7c0.6-0.2,1.5,0,1.9,0.5l3.3,4c0.4,0.5,0.5,1.4,0.1,2l-8.5,13.1c-0.4,0.6-0.3,1.4,0.2,1.9l5.1,4.5
	c0.5,0.4,1.4,0.5,1.9,0l12.1-10c0.5-0.4,1.4-0.5,2-0.1l4.3,2.8c0.5,0.4,0.9,1.2,0.7,1.8l-4,15.1c-0.2,0.7,0.2,1.4,0.8,1.7
	c0,0,1.7,0.8,3.1,1.5c1.4,0.6,3.2,1.3,3.2,1.3c0.7,0.3,1.5,0,1.8-0.6l8.4-13.2c0.3-0.6,1.2-0.9,1.8-0.7l5,1.3
	c0.7,0.2,1.2,0.9,1.3,1.5l0.8,15.7c0,0.7,0.6,1.3,1.3,1.4l6.8,0.7c0.7,0,1.4-0.5,1.5-1.1l3.9-15.2c0.2-0.6,0.9-1.2,1.6-1.2l5.1-0.3
	c0.7,0,1.4,0.4,1.7,1.1l5.6,14.6c0.2,0.6,1,1.1,1.6,0.9l6.7-1.5c0.7-0.1,1.2-0.8,1.1-1.5l-0.9-15.6c-0.1-0.7,0.4-1.5,1.1-1.7
	l4.8-1.9c0.7-0.2,1.5,0,1.9,0.5l9.8,12.1c0.5,0.5,1.3,0.7,1.9,0.4l5.9-3.4c0.6-0.4,0.8-1.2,0.6-1.8l-5.7-14.6
	c-0.2-0.7,0-1.5,0.5-1.9l4-3.3c0.5-0.4,1.4-0.5,2-0.1l13.2,8.5c0.5,0.4,1.4,0.3,1.8-0.2l4.6-5.1c0.4-0.5,0.4-1.4,0-1.9l-9.9-12.1
	c-0.4-0.5-0.5-1.4-0.1-2l2.8-4.3c0.3-0.6,1.2-0.9,1.8-0.7l15.1,4.1c0.7,0.2,1.4-0.2,1.7-0.8c0,0,0.8-1.7,1.5-3.1
	c0.6-1.5,1.3-3.2,1.3-3.2c0.2-0.6,0-1.4-0.6-1.8l-13.2-8.4c-0.6-0.4-0.9-1.2-0.7-1.8l1.3-5c0.2-0.6,0.9-1.2,1.5-1.2l15.7-0.8
	c0.6,0,1.3-0.6,1.3-1.3l0.7-6.8c0.1-0.7-0.4-1.4-1.1-1.5l-15.2-3.9c-0.6-0.2-1.2-0.9-1.2-1.5l-0.3-5.1c-0.1-0.7,0.4-1.5,1.1-1.7
	l14.6-5.6c0.7-0.2,1.1-1,0.9-1.7l-1.4-6.7c-0.2-0.7-0.9-1.2-1.5-1.1L166,227c-0.7,0-1.4-0.5-1.7-1.1l-1.9-4.8
	c-0.3-0.6,0-1.5,0.5-1.9l12.2-9.9c0.5-0.4,0.7-1.3,0.4-1.8l-3.4-5.9c-0.4-0.6-1.2-0.8-1.8-0.6l-14.6,5.7c-0.6,0.2-1.5,0-1.9-0.5
	l-3.3-4c-0.4-0.5-0.4-1.4-0.1-2L159,187c0.3-0.6,0.2-1.4-0.2-1.9l-5.1-4.5c-0.5-0.5-1.3-0.5-1.9,0l-12.1,10c-0.5,0.4-1.5,0.5-2,0.1
	l-4.3-2.8c-0.6-0.4-0.9-1.2-0.7-1.8l4.1-15.1c0.2-0.7-0.2-1.5-0.8-1.7c0,0-1.7-0.8-3.1-1.5c-1.4-0.6-3.2-1.3-3.2-1.3
	c-0.6-0.2-1.5,0-1.8,0.6l-8.4,13.2c-0.4,0.6-1.2,0.9-1.9,0.7l-5-1.3c-0.7-0.2-1.2-0.9-1.3-1.6l-0.8-15.7c-0.1-0.7-0.6-1.3-1.3-1.4
	l-6.8-0.7c-0.7,0-1.4,0.5-1.5,1.1l-3.9,15.2c-0.2,0.6-0.9,1.2-1.6,1.2l-5.1,0.3c-0.7,0-1.4-0.4-1.7-1.1l-5.6-14.6
	c-0.2-0.6-1-1-1.6-0.9l-6.7,1.5c-0.7,0.2-1.2,0.8-1.1,1.5l0.9,15.6c0,0.7-0.4,1.4-1,1.7l-4.8,1.8c-0.7,0.3-1.5,0-2-0.5L56.8,171
	c-0.4-0.5-1.3-0.7-1.9-0.4l-5.9,3.4c-0.6,0.4-0.9,1.2-0.6,1.8l5.8,14.6c0.2,0.6,0,1.5-0.5,1.9l-4,3.3c-0.5,0.4-1.4,0.5-2,0.1
	l-13.2-8.5c-0.5-0.4-1.4-0.3-1.9,0.2l-4.6,5.1c-0.4,0.5-0.4,1.4,0,1.9l10,12.1c0.5,0.5,0.5,1.4,0.1,2l-2.8,4.3
	c-0.4,0.6-1.2,0.9-1.8,0.7l-15.2-4c-0.6-0.2-1.4,0.2-1.7,0.7c0,0-0.8,1.7-1.5,3.1c-0.6,1.4-1.3,3.1-1.3,3.1c-0.2,0.6,0,1.4,0.6,1.8
	l13.2,8.4c0.6,0.4,0.9,1.2,0.7,1.8l-1.3,5C26.9,234.3,26.2,234.9,25.6,234.9z M81.8,295.2c-5.2,6.9-15.2,8.3-22.1,3.1
	c-6.9-5.3-8.3-15.2-3-22.1c5.3-6.9,15.1-8.3,22.1-3C85.7,278.4,87.1,288.3,81.8,295.2z M144,239.4c8.6,1.1,14.8,9,13.7,17.6
	c-1.1,8.6-9,14.7-17.6,13.7c-8.6-1.1-14.8-9-13.7-17.6C127.5,244.5,135.3,238.3,144,239.4z M111.8,203.5c5.3-6.9,15.2-8.3,22.1-3
	c6.9,5.3,8.3,15.2,3,22.1c-5.3,6.9-15.1,8.3-22.1,3C107.9,220.3,106.5,210.5,111.8,203.5z M129,285.2c3.4,8-0.4,17.3-8.4,20.6
	c-8,3.4-17.3-0.4-20.6-8.4c-3.4-8,0.4-17.3,8.4-20.6C116.4,273.5,125.6,277.2,129,285.2z M103.1,246.7c1.4,3.5-0.2,7.5-3.6,9
	c-3.5,1.5-7.5-0.2-9-3.7c-1.5-3.5,0.1-7.5,3.6-8.9C97.6,241.6,101.7,243.2,103.1,246.7z M73,192.8c8-3.4,17.3,0.4,20.7,8.4
	c3.3,8-0.4,17.3-8.4,20.6c-8,3.4-17.3-0.4-20.7-8.4C61.2,205.4,65,196.2,73,192.8z M36,241.7c1.1-8.6,9-14.8,17.6-13.7
	c8.6,1.1,14.7,9,13.6,17.6c-1.1,8.6-9,14.8-17.6,13.7C41,258.2,34.9,250.3,36,241.7z"/>
</svg>
