<?xml version="1.0" encoding="utf-8"?>
<!-- Generator: Adobe Illustrator 18.1.0, SVG Export Plug-In . SVG Version: 6.00 Build 0)  -->
<svg version="1.1" id="Layer_1" xmlns="http://www.w3.org/2000/svg" xmlns:xlink="http://www.w3.org/1999/xlink" x="0px" y="0px"
	 viewBox="0 0 500 380" enable-background="new 0 0 500 380" xml:space="preserve">
<path fill="#576F7C" d="M202.4,215.8c-0.4,0.5-1.2,0.9-1.9,0.7l-15.1-4.1c-0.7-0.2-1.5,0.2-1.7,0.8c0,0-0.8,1.7-1.4,3.1
	c-0.6,1.4-1.3,3.2-1.3,3.2c-0.2,0.6,0,1.4,0.6,1.8l13.2,8.4c0.6,0.3,0.9,1.2,0.7,1.8l-1.3,5c-0.1,0.7-0.8,1.2-1.5,1.3l-15.7,0.8
	c-0.7,0-1.3,0.6-1.4,1.3l-0.7,6.8c0,0.7,0.4,1.4,1.1,1.5l15.2,3.9c0.7,0.2,1.2,0.9,1.3,1.5l0.3,5.1c0,0.7-0.5,1.4-1.1,1.7l-14.6,5.6
	c-0.7,0.3-1.1,1-0.9,1.7l1.4,6.7c0.2,0.7,0.8,1.2,1.5,1.1l15.6-1c0.7,0,1.4,0.4,1.7,1.1l1.9,4.8c0.2,0.6,0,1.5-0.5,1.9l-12.2,9.9
	c-0.5,0.4-0.7,1.2-0.4,1.8l3.4,5.9c0.3,0.6,1.2,0.9,1.8,0.6L205,295c0.6-0.3,1.5,0,1.9,0.5l3.3,4c0.4,0.5,0.5,1.4,0.1,2l-8.6,13.2
	c-0.4,0.6-0.2,1.4,0.3,1.9l5.1,4.5c0.5,0.4,1.4,0.4,1.8,0l12.2-10c0.5-0.4,1.4-0.5,2-0.1l4.3,2.8c0.6,0.3,0.9,1.2,0.7,1.9l-4.1,15.1
	c-0.2,0.6,0.2,1.4,0.8,1.7c0,0,1.7,0.8,3.1,1.4c1.4,0.6,3.2,1.3,3.2,1.3c0.7,0.2,1.4,0,1.8-0.6l8.5-13.2c0.3-0.5,1.2-0.9,1.8-0.7
	l5,1.3c0.7,0.2,1.2,0.9,1.2,1.5l0.8,15.7c0,0.7,0.6,1.3,1.3,1.4l6.8,0.7c0.7,0,1.4-0.5,1.5-1.1l3.9-15.2c0.2-0.7,0.9-1.2,1.5-1.3
	l5.1-0.3c0.7,0,1.5,0.4,1.7,1.1l5.6,14.6c0.2,0.6,1,1,1.6,0.9l6.7-1.4c0.7-0.2,1.2-0.9,1.1-1.5l-0.9-15.6c0-0.7,0.4-1.4,1.1-1.7
	l4.8-1.9c0.6-0.2,1.5,0,1.9,0.5l9.9,12.2c0.4,0.6,1.2,0.7,1.8,0.4l5.9-3.5c0.6-0.3,0.8-1.1,0.6-1.8l-5.7-14.6
	c-0.2-0.6,0-1.5,0.5-1.9l4-3.3c0.5-0.4,1.4-0.5,2-0.1l13.2,8.5c0.6,0.4,1.4,0.3,1.9-0.2l4.5-5.1c0.5-0.5,0.5-1.4,0-1.9l-10-12.1
	c-0.4-0.5-0.5-1.4-0.1-2l2.8-4.3c0.3-0.6,1.2-0.9,1.8-0.7l15.2,4.1c0.7,0.1,1.4-0.2,1.7-0.8c0,0,0.8-1.7,1.5-3.1
	c0.6-1.4,1.3-3.2,1.3-3.2c0.3-0.6,0-1.4-0.6-1.8l-13.2-8.4c-0.5-0.4-0.9-1.2-0.7-1.9l1.3-5c0.2-0.6,0.9-1.2,1.6-1.2l15.7-0.8
	c0.7,0,1.3-0.6,1.4-1.3l0.7-6.8c0-0.7-0.4-1.4-1.1-1.5l-15.2-3.9c-0.6-0.2-1.2-0.9-1.3-1.5l-0.3-5.2c0-0.7,0.4-1.4,1.1-1.7l14.6-5.6
	c0.6-0.2,1-1,0.9-1.6l-1.5-6.7c-0.2-0.6-0.8-1.2-1.5-1.1l-15.6,1c-0.7,0-1.4-0.4-1.6-1.1l-1.9-4.8c-0.3-0.7,0-1.5,0.5-1.9l12.2-9.8
	c0.5-0.4,0.7-1.3,0.4-1.8l-3.4-5.9c-0.4-0.6-1.2-0.8-1.8-0.6l-14.6,5.8c-0.6,0.3-1.5,0-1.9-0.5l-3.2-4c-0.4-0.5-0.5-1.4-0.1-2
	L326,190c0.4-0.6,0.3-1.4-0.2-1.9l-5.1-4.6c-0.5-0.4-1.4-0.4-1.9,0l-12.1,10c-0.5,0.4-1.4,0.5-2,0.1l-4.4-2.8
	c-0.5-0.3-0.9-1.2-0.7-1.8l4.1-15.1c0.2-0.7-0.2-1.4-0.8-1.7c0,0-1.7-0.8-3.1-1.5c-1.4-0.6-3.2-1.3-3.2-1.3c-0.6-0.3-1.4,0-1.8,0.6
	l-8.4,13.2c-0.4,0.6-1.2,0.9-1.9,0.7l-5-1.3c-0.6-0.2-1.2-0.9-1.2-1.5l-0.8-15.7c0-0.7-0.6-1.3-1.3-1.4l-6.8-0.7
	c-0.7-0.1-1.4,0.4-1.5,1.1l-4,15.2c-0.2,0.6-0.9,1.2-1.5,1.3l-5.1,0.3c-0.7,0-1.4-0.5-1.7-1.1l-5.6-14.6c-0.2-0.6-1-1-1.6-0.9
	l-6.7,1.5c-0.6,0.2-1.1,0.8-1.1,1.5l0.9,15.7c0.1,0.7-0.5,1.4-1.1,1.7l-4.8,1.9c-0.6,0.2-1.5,0-1.9-0.5l-9.9-12.2
	c-0.4-0.5-1.3-0.7-1.9-0.3L216,177c-0.6,0.4-0.8,1.2-0.6,1.8l5.7,14.6c0.3,0.6,0.1,1.5-0.5,1.9l-4,3.3c-0.5,0.4-1.4,0.4-1.9,0.1
	l-13.2-8.6c-0.6-0.4-1.4-0.3-1.9,0.2l-4.5,5.1c-0.5,0.5-0.5,1.4,0,1.9l10,12.1c0.4,0.6,0.5,1.4,0.1,2L202.4,215.8z M285.2,303
	c-9.6,4.1-19.7,5.2-29.3,3.8c10.3-10.5,15.7-25.5,14.2-40.4c6.2-2.7,9.6-9,9.1-15.3c14.3-1.2,28.5,4.6,37.8,15.3
	C312.9,282.2,301.6,296.1,285.2,303z M255.4,257.7c-0.3-0.5-0.6-1-0.8-1.5c-0.5-1.1-0.7-2.2-0.8-3.4c-0.2-3.6,1.6-7,4.6-9
	c0.5-0.3,1-0.6,1.5-0.8c1.1-0.5,2.3-0.7,3.4-0.8c3.6-0.2,7,1.5,9,4.6c0.3,0.4,0.6,0.9,0.8,1.5c0.4,1.1,0.7,2.2,0.7,3.4
	c0.2,3.6-1.5,7-4.6,9c-0.5,0.3-1,0.6-1.5,0.8c-1.1,0.5-2.2,0.7-3.4,0.8C260.8,262.5,257.3,260.8,255.4,257.7z M263.7,265.1
	c-0.1,0.8-0.8,1.4-1.6,1.3c-0.8-0.1-1.3-0.8-1.3-1.6c0.1-0.8,0.8-1.3,1.6-1.3C263.2,263.6,263.8,264.4,263.7,265.1z M257.3,263.3
	c-0.5,0.6-1.4,0.8-2,0.3c-0.6-0.5-0.7-1.4-0.3-2c0.5-0.6,1.4-0.7,2.1-0.3C257.6,261.8,257.7,262.7,257.3,263.3z M251.5,255.9
	c0.7-0.3,1.6,0,1.9,0.8c0.2,0.5,0.1,1-0.2,1.4c-0.2,0.2-0.3,0.4-0.6,0.4c-0.5,0.2-1,0.2-1.4-0.1c-0.2-0.2-0.4-0.3-0.5-0.6
	C250.4,257.1,250.7,256.2,251.5,255.9z M249.7,250.5c0.1-0.8,0.8-1.3,1.6-1.2c0.8,0.1,1.4,0.8,1.3,1.6c-0.1,0.8-0.8,1.3-1.6,1.2
	C250.2,252,249.6,251.3,249.7,250.5z M252.8,245.7c-0.6-0.5-0.7-1.4-0.3-2c0.5-0.7,1.4-0.8,2.1-0.3c0.6,0.5,0.7,1.4,0.2,2
	C254.3,246,253.4,246.2,252.8,245.7z M257.5,241c-0.2-0.5-0.1-1,0.2-1.4c0.1-0.2,0.3-0.4,0.6-0.5c0.7-0.3,1.6,0,1.9,0.8
	c0.3,0.8,0,1.6-0.8,1.9c-0.5,0.2-1,0.1-1.4-0.2C257.8,241.5,257.6,241.3,257.5,241z M264,239.4c0.1-0.8,0.8-1.3,1.6-1.2
	c0.8,0.1,1.3,0.8,1.3,1.6c-0.1,0.8-0.8,1.3-1.6,1.3C264.4,240.9,263.9,240.2,264,239.4z M270.4,241.2c0.5-0.7,1.4-0.8,2-0.3
	c0.6,0.5,0.8,1.4,0.3,2c-0.5,0.6-1.4,0.7-2,0.3C270.1,242.7,269.9,241.8,270.4,241.2z M276.2,248.7c-0.7,0.3-1.6-0.1-1.9-0.8
	c-0.2-0.5-0.2-1,0.2-1.4c0.2-0.2,0.4-0.4,0.6-0.5c0.5-0.2,1-0.1,1.4,0.2c0.2,0.1,0.4,0.3,0.5,0.6
	C277.3,247.5,276.9,248.3,276.2,248.7z M278,254.1c-0.1,0.8-0.9,1.3-1.6,1.2c-0.8-0.1-1.3-0.8-1.2-1.6c0.1-0.8,0.8-1.4,1.6-1.2
	C277.5,252.5,278.1,253.3,278,254.1z M274.9,258.8c0.7,0.4,0.8,1.4,0.3,2c-0.5,0.6-1.4,0.8-2,0.3c-0.6-0.5-0.8-1.4-0.3-2
	C273.4,258.5,274.3,258.4,274.9,258.8z M268.2,262.7c0.5-0.2,1-0.1,1.5,0.2c0.2,0.1,0.3,0.4,0.4,0.6c0.2,0.5,0.1,1-0.2,1.4
	c-0.2,0.2-0.4,0.4-0.6,0.5c-0.7,0.3-1.6,0-1.9-0.8C267.1,263.9,267.5,263,268.2,262.7z M277.8,199c15.9,4.2,29.9,15.5,36.8,31.9
	c4,9.6,5.1,19.6,3.7,29.3c-10.5-10.3-25.5-15.7-40.4-14.2c-2.8-6.1-9-9.6-15.4-9.1C261.4,222.6,267.2,208.3,277.8,199z M242.5,201.5
	c9.6-4,19.7-5.1,29.3-3.7c-10.3,10.5-15.7,25.5-14.2,40.4c-6.2,2.7-9.6,9-9.1,15.4c-14.2,1.2-28.5-4.6-37.9-15.3
	C214.8,222.3,226.1,208.4,242.5,201.5z M209.4,244.3c10.5,10.3,25.5,15.7,40.4,14.2c2.8,6.1,9,9.6,15.4,9.1
	c1.1,14.3-4.6,28.6-15.3,37.9c-15.9-4.2-29.8-15.5-36.7-31.9C209.1,264,208,253.9,209.4,244.3z M272.7,249.6l-17,7.2
	c2.3,4.1,7.3,5.9,11.7,4.1C271.9,259,274.1,254.1,272.7,249.6z M260.3,243.7c-4.4,1.9-6.7,6.7-5.3,11.2l17-7.1
	C269.7,243.7,264.7,241.9,260.3,243.7z"/>
</svg>
