<?xml version="1.0" encoding="utf-8"?>
<!-- Generator: Adobe Illustrator 18.1.0, SVG Export Plug-In . SVG Version: 6.00 Build 0)  -->
<svg version="1.1" id="Layer_1" xmlns="http://www.w3.org/2000/svg" xmlns:xlink="http://www.w3.org/1999/xlink" x="0px" y="0px"
	 viewBox="0 0 500 380" enable-background="new 0 0 500 380" xml:space="preserve">
<path fill="#FAAA00" d="M246.5,82.9l-15.7,0.8c-0.7,0-1.3,0.6-1.4,1.3l-0.7,6.8c0,0.7,0.4,1.3,1.1,1.5l15.2,3.9
	c0.7,0.2,1.3,0.9,1.3,1.5l0.3,5.1c0,0.7-0.5,1.4-1.1,1.7l-14.6,5.6c-0.6,0.2-1,1-0.9,1.7l1.5,6.7c0.2,0.7,0.8,1.1,1.5,1.1l15.6-0.9
	c0.7-0.1,1.4,0.4,1.7,1.1l1.9,4.8c0.2,0.6,0,1.5-0.5,1.9l-12.2,9.9c-0.5,0.4-0.7,1.3-0.4,1.9l3.4,5.9c0.3,0.6,1.1,0.9,1.8,0.6
	l14.6-5.7c0.6-0.2,1.5,0,1.9,0.5l3.2,4c0.4,0.5,0.5,1.4,0.1,2l-8.5,13.2c-0.4,0.6-0.3,1.4,0.2,1.9l5.1,4.5c0.5,0.4,1.4,0.4,1.9,0
	l12.1-10c0.5-0.4,1.4-0.5,2-0.1l4.4,2.8c0.5,0.4,0.9,1.2,0.7,1.9l-4.1,15.1c-0.2,0.7,0.2,1.4,0.8,1.7c0,0,1.7,0.8,3.1,1.4
	c1.4,0.6,3.1,1.3,3.1,1.3c0.6,0.3,1.5,0,1.8-0.6l8.5-13.2c0.3-0.6,1.2-0.9,1.8-0.7l5,1.3c0.6,0.1,1.2,0.8,1.3,1.5l0.8,15.7
	c0,0.7,0.6,1.3,1.3,1.4l6.8,0.7c0.6,0,1.3-0.5,1.5-1.1l4-15.2c0.2-0.7,0.8-1.2,1.5-1.3l5.1-0.3c0.7,0,1.4,0.4,1.6,1.1l5.7,14.6
	c0.2,0.6,1,1,1.6,0.9l6.7-1.5c0.6-0.2,1.2-0.8,1.1-1.6l-0.9-15.6c0-0.7,0.4-1.4,1-1.7l4.8-1.9c0.6-0.2,1.5,0,1.9,0.5l9.9,12.2
	c0.4,0.6,1.3,0.7,1.9,0.4l5.9-3.4c0.6-0.4,0.8-1.2,0.6-1.8l-5.8-14.6c-0.2-0.6,0-1.5,0.5-1.9l4-3.3c0.5-0.4,1.5-0.5,2-0.1l13.2,8.6
	c0.6,0.3,1.4,0.3,1.9-0.2l4.5-5.1c0.4-0.5,0.5-1.4,0-1.9l-9.9-12.1c-0.5-0.5-0.5-1.4-0.1-2l2.8-4.3c0.3-0.6,1.2-0.9,1.8-0.7
	l15.2,4.1c0.6,0.2,1.4-0.2,1.7-0.8c0,0,0.8-1.7,1.5-3.1c0.6-1.4,1.3-3.1,1.3-3.1c0.3-0.6,0-1.5-0.6-1.8l-13.2-8.4
	c-0.5-0.4-0.9-1.2-0.7-1.9l1.3-5c0.2-0.6,0.9-1.2,1.5-1.2l15.7-0.8c0.7,0,1.3-0.6,1.4-1.3l0.7-6.8c0-0.7-0.4-1.4-1.1-1.5l-15.2-3.9
	c-0.7-0.2-1.2-0.9-1.3-1.5l-0.3-5.2c0-0.6,0.5-1.4,1.1-1.7l14.6-5.6c0.6-0.2,1-1,0.9-1.6l-1.4-6.7c-0.1-0.7-0.8-1.2-1.5-1.1
	l-15.6,0.9c-0.7,0-1.4-0.4-1.6-1.1l-1.9-4.8c-0.3-0.7,0-1.5,0.5-1.9l12.2-9.9c0.5-0.4,0.7-1.3,0.4-1.9l-3.4-5.9
	c-0.3-0.6-1.1-0.9-1.8-0.6l-14.6,5.7c-0.6,0.3-1.5,0-1.9-0.5l-3.3-4c-0.4-0.5-0.5-1.4-0.1-2l8.5-13.2c0.4-0.6,0.3-1.4-0.2-1.9
	l-5.1-4.5c-0.5-0.5-1.3-0.5-1.9,0l-12.1,10c-0.5,0.4-1.4,0.5-2,0.1l-4.3-2.8c-0.6-0.4-0.9-1.2-0.7-1.9l4.1-15.2
	c0.1-0.6-0.2-1.4-0.8-1.7c0,0-1.7-0.8-3.1-1.4c-1.5-0.6-3.2-1.3-3.2-1.3c-0.6-0.2-1.4,0-1.8,0.6l-8.5,13.2c-0.4,0.5-1.2,0.9-1.8,0.7
	l-5-1.3c-0.7-0.2-1.3-0.9-1.2-1.5l-0.8-15.7c0-0.7-0.6-1.3-1.3-1.4l-6.8-0.7c-0.6-0.1-1.3,0.4-1.5,1.1l-3.9,15.2
	c-0.2,0.7-0.9,1.2-1.5,1.3l-5.2,0.3c-0.7,0-1.4-0.5-1.7-1.1l-5.6-14.7c-0.2-0.6-1-1-1.6-0.9l-6.7,1.5c-0.6,0.2-1.2,0.8-1.1,1.5
	l1,15.6c0.1,0.7-0.4,1.4-1.1,1.7l-4.8,1.8c-0.6,0.3-1.5,0-1.9-0.5L277.7,19c-0.4-0.5-1.3-0.7-1.8-0.3l-5.9,3.5
	c-0.6,0.3-0.8,1.1-0.6,1.8l5.7,14.6c0.2,0.6,0,1.5-0.5,1.9l-4,3.2c-0.5,0.4-1.4,0.5-2,0.1l-13.2-8.5c-0.5-0.4-1.4-0.3-1.9,0.2
	l-4.5,5.1c-0.4,0.5-0.4,1.3,0,1.9l10,12.2c0.5,0.5,0.5,1.4,0.1,2l-2.8,4.3c-0.3,0.6-1.2,0.9-1.8,0.7l-15.1-4.1
	c-0.7-0.2-1.4,0.2-1.7,0.8c0,0-0.8,1.7-1.4,3.1c-0.6,1.4-1.3,3.2-1.3,3.2c-0.2,0.6,0,1.4,0.6,1.8l13.2,8.4c0.5,0.3,0.9,1.2,0.7,1.8
	l-1.3,5C247.9,82.3,247.2,82.8,246.5,82.9z M270.5,135.2c-3.4-4.3-6.3-9.1-8.6-14.4c-2.2-5.3-3.6-10.7-4.3-16.2l42.6-1.1
	c0.1,0.4,0.2,0.7,0.4,1.1c0.2,0.3,0.3,0.7,0.5,1L270.5,135.2z M304.4,89.4c-0.8-0.6-0.9-1.7-0.3-2.5c0.6-0.8,1.7-0.9,2.4-0.3
	c0.8,0.6,0.9,1.7,0.3,2.4C306.3,89.8,305.2,90,304.4,89.4z M304.2,104.9c-0.7,0.3-1.5,0.1-2-0.5c-0.1-0.1-0.2-0.3-0.3-0.5
	c-0.1-0.2-0.1-0.3-0.1-0.5c-0.1-0.7,0.3-1.5,1.1-1.8c0.9-0.4,1.9,0.1,2.3,0.9C305.5,103.5,305.1,104.5,304.2,104.9z M304.2,95.6
	c-0.1,1-1,1.6-1.9,1.5c-1-0.1-1.7-1-1.5-2c0.1-1,1-1.6,2-1.5C303.6,93.8,304.3,94.6,304.2,95.6z M311.1,157.5
	c-11.2-1.3-21.9-5.6-30.7-12.5l29.3-30.9c0.7,0.3,1.4,0.6,2.1,0.8L311.1,157.5z M307,108.6c0.6-0.7,1.7-0.9,2.5-0.3
	c0.7,0.6,0.9,1.7,0.3,2.5c-0.6,0.7-1.7,0.9-2.5,0.3C306.6,110.4,306.5,109.3,307,108.6z M315.6,114.3c-1-0.1-1.6-1-1.5-2
	c0.1-0.9,1-1.6,2-1.5c0.9,0.1,1.6,1,1.5,2C317.4,113.8,316.6,114.5,315.6,114.3z M322.1,112.2c-0.4-0.9,0-1.9,0.9-2.2
	c0.9-0.4,1.9,0,2.3,0.9c0.3,0.7,0.1,1.5-0.5,2c-0.1,0.1-0.2,0.2-0.4,0.3c-0.2,0.1-0.3,0.1-0.5,0.1
	C323.2,113.3,322.4,112.9,322.1,112.2z M341.2,153.1c-5.3,2.2-10.8,3.6-16.2,4.3l-1.1-42.5c0.4-0.1,0.7-0.2,1-0.4
	c0.3-0.2,0.7-0.3,1-0.5l29.7,30.5C351.4,148,346.5,150.9,341.2,153.1z M332.6,92.9c-0.9,0.4-1.9-0.1-2.3-0.9
	c-0.4-0.9,0.1-1.9,0.9-2.3c0.7-0.3,1.5-0.1,2,0.5c0.1,0.1,0.2,0.3,0.3,0.4c0.1,0.2,0.1,0.3,0.2,0.5
	C333.8,91.9,333.4,92.6,332.6,92.9z M334.8,99.4c-0.1,0.9-1,1.6-1.9,1.5c-1-0.1-1.7-1-1.5-2c0.1-0.9,1-1.6,2-1.5
	C334.3,97.6,334.9,98.5,334.8,99.4z M331.1,105.2c0.8,0.6,1,1.7,0.4,2.5c-0.6,0.8-1.7,0.9-2.4,0.3c-0.8-0.6-0.9-1.7-0.3-2.4
	C329.3,104.8,330.3,104.7,331.1,105.2z M365.4,134.6l-30.8-29.3c0.3-0.7,0.6-1.4,0.8-2.1l42.5,0.6
	C376.7,115.1,372.3,125.8,365.4,134.6z M365,59.4c3.4,4.3,6.3,9.1,8.5,14.4c2.3,5.3,3.7,10.7,4.3,16.2l-42.5,1.1
	c-0.1-0.3-0.2-0.7-0.4-1c-0.2-0.3-0.3-0.7-0.5-1L365,59.4z M324.4,37.2c11.2,1.2,21.9,5.6,30.7,12.5l-29.3,30.8
	c-0.7-0.3-1.3-0.6-2-0.8L324.4,37.2z M328.5,86.1c-0.6,0.8-1.6,0.9-2.4,0.3c-0.8-0.6-0.9-1.7-0.3-2.4c0.6-0.8,1.7-0.9,2.4-0.3
	C328.9,84.2,329.1,85.3,328.5,86.1z M319.9,80.3c0.9,0.1,1.6,1,1.5,2c-0.1,0.9-1,1.6-1.9,1.5c-1-0.1-1.6-1-1.5-1.9
	C318.1,80.8,319,80.1,319.9,80.3z M328.9,92.6c2.6,6.2-0.3,13.3-6.5,15.9c-6.2,2.6-13.3-0.3-15.9-6.5c-2.6-6.1,0.3-13.3,6.5-15.9
	C319.2,83.5,326.4,86.4,328.9,92.6z M313.4,82.4c0.4,0.9,0,1.9-1,2.3c-0.9,0.4-1.9-0.1-2.3-0.9c-0.3-0.7-0.1-1.5,0.5-2
	c0.2-0.1,0.3-0.2,0.4-0.3c0.2-0.1,0.3-0.1,0.5-0.1C312.3,81.3,313,81.7,313.4,82.4z M294.3,41.5c5.3-2.2,10.8-3.7,16.2-4.3l1.1,42.5
	c-0.4,0.1-0.8,0.2-1.1,0.4c-0.3,0.1-0.7,0.3-1,0.5l-29.6-30.5C284.2,46.7,289,43.7,294.3,41.5z M270.1,60l30.8,29.3
	c-0.3,0.6-0.6,1.3-0.8,2l-42.5-0.6C258.8,79.5,263.2,68.8,270.1,60z"/>
</svg>
